<?xml version="1.0" encoding="iso-8859-1"?>
<!-- Uploaded to: SVG Repo, www.svgrepo.com, Generator: SVG Repo Mixer Tools -->
<!DOCTYPE svg PUBLIC "-//W3C//DTD SVG 1.1//EN" "http://www.w3.org/Graphics/SVG/1.1/DTD/svg11.dtd">
<svg fill="#000000" version="1.1" id="Capa_1" xmlns="http://www.w3.org/2000/svg" xmlns:xlink="http://www.w3.org/1999/xlink" 
	 width="800px" height="800px" viewBox="0 0 34.807 34.807"
	 xml:space="preserve">
<g>
	<g>
		<path d="M1,33.484h32.807c0.553,0,1-0.446,1-1V2.323c0-0.553-0.447-1-1-1H1c-0.553,0-1,0.447-1,1v30.16
			C0,33.036,0.447,33.484,1,33.484z M2,31.484V10.64h30.807v20.844H2z M32.806,3.323v5.316H2V3.323H32.806z"/>
		<path d="M12.556,22.92H8.234c-1.515,0-2.746-1.23-2.746-2.746c0-1.514,1.231-2.744,2.746-2.744h7.49
			c1.515,0,2.746,1.23,2.746,2.744c0,0.554,0.447,1,1,1c0.554,0,1-0.446,1-1c0-2.615-2.129-4.745-4.746-4.745h-7.49
			c-2.617,0-4.746,2.129-4.746,4.745c0,2.617,2.129,4.746,4.746,4.746h4.322c0.553,0,1-0.447,1-1S13.109,22.92,12.556,22.92z"/>
		<path d="M26.451,15.43h-4.326c-0.553,0-1,0.447-1,1c0,0.553,0.447,1,1,1h4.326c1.513,0,2.744,1.23,2.744,2.744
			c0,1.516-1.231,2.746-2.744,2.746h-7.492c-1.515,0-2.746-1.23-2.746-2.746c0-0.553-0.447-1-1-1c-0.553,0-1,0.447-1,1
			c0,2.617,2.129,4.746,4.746,4.746h7.492c2.615,0,4.744-2.129,4.744-4.746C31.195,17.559,29.066,15.43,26.451,15.43z"/>
	</g>
</g>
</svg>